PathFileType	4	(X/Y/Z)	/Users/niels/Desktop/University/Third Semester/Perception and Action/Exam/Gymnastics Motion Tracking/Code for Gym Tracking/Analyzed Data/Webcam_Backflip/id7_4_trajectory_Sports2D/id7_4_trajectory_Sports2D_px_person00.trc
DataRate	CameraRate	NumFrames	NumMarkers	Units	OrigDataRate	OrigDataStartFrame	OrigNumFrames
29.8125	29.8125	12	22	m	29.8125	20	160
Frame#	Time	Hip			RHip			RKnee			RAnkle			RBigToe			RSmallToe			RHeel			LHip			LKnee			LAnkle			LBigToe			LSmallToe			LHeel			Neck			Head			Nose			RShoulder			RElbow			RWrist			LShoulder			LElbow			LWrist		
		X1	Y1	Z1	X2	Y2	Z2	X3	Y3	Z3	X4	Y4	Z4	X5	Y5	Z5	X6	Y6	Z6	X7	Y7	Z7	X8	Y8	Z8	X9	Y9	Z9	X10	Y10	Z10	X11	Y11	Z11	X12	Y12	Z12	X13	Y13	Z13	X14	Y14	Z14	X15	Y15	Z15	X16	Y16	Z16	X17	Y17	Z17	X18	Y18	Z18	X19	Y19	Z19	X20	Y20	Z20	X21	Y21	Z21	X22	Y22	Z22
20	0.670859538784067	0.9381591152996199	-0.5727743330313226	0.0	0.9370389912130342	-0.5718432476104824	0.0	0.9979912367561727	-0.661626246796212	0.0	0.9576479224390819	-0.7650865870737545	0.0	0.997060772997134	-0.7802136813687117	0.0	0.9868622156102661	-0.7834721127744485	0.0	0.9455490979166226	-0.778017926393621	0.0	0.9391233215437483	-0.5690227390726756	0.0	0.9897824747597989	-0.6587378930167751	0.0	0.9527851998476412	-0.7575488258069784	0.0	0.9910228511732155	-0.7724372449667587	0.0	0.9845768694665953	-0.7709120514004739	0.0	0.9380463945044627	-0.7695560209824298	0.0	0.9790400373951476	-0.43528742638522183	0.0	1.0062471147831593	-0.36963495544656494	0.0	1.0159478706137388	-0.40176310605246146	0.0	0.9702386577520874	-0.45322804888408263	0.0	0.9213155012772454	-0.49837682196489025	0.0	0.8772234367797325	-0.5367743450881559	0.0	0.9652788001962704	-0.4443392695001633	0.0	0.9205157451297529	-0.46167198357095957	0.0	0.8878788846391245	-0.48828247691188564	0.0
21	0.7044025157232703	0.9358119160696312	-0.5981400626902095	0.0	0.9349376080772593	-0.597682315091672	0.0	0.995049323365396	-0.6857290383235267	0.0	0.9550040274198207	-0.7874765876013725	0.0	0.9933646507940064	-0.8002075440996945	0.0	0.9832771784666694	-0.8035825191187411	0.0	0.9435108231437788	-0.7990046623788818	0.0	0.9371787887670001	-0.5947673419427135	0.0	0.9880688087171673	-0.6822337039775468	0.0	0.9520499532276036	-0.7804905243712419	0.0	0.9885825476977859	-0.7934676594845658	0.0	0.9828102975207754	-0.7917943164333685	0.0	0.936325275899176	-0.7916020709058624	0.0	0.9772472170148896	-0.4597509394047578	0.0	1.0015103768825093	-0.39388417680076016	0.0	1.0127100433018523	-0.4250474593891239	0.0	0.9703678319658035	-0.47993323238055463	0.0	0.9331576470768851	-0.5321027251013597	0.0	0.9042837624777352	-0.5780553001226791	0.0	0.9635583819773921	-0.4694073609845062	0.0	0.9259595326036675	-0.4892191746822108	0.0	0.9059148513433093	-0.5135482220227295	0.0
22	0.7379454926624737	0.9346684086594591	-0.6220715916526085	0.0	0.934193527545346	-0.6221435352065617	0.0	0.9893008370316687	-0.7111594703038606	0.0	0.9525098102120102	-0.8111780327864059	0.0	0.9907093778153623	-0.8218494376817899	0.0	0.9808474766164644	-0.8256417765181695	0.0	0.9417833048918902	-0.8213497394508762	0.0	0.9364263111812975	-0.6193480984936535	0.0	0.9839963897981737	-0.7074647738678377	0.0	0.9513456117906206	-0.8046137417147511	0.0	0.9870442208474771	-0.8156866118998041	0.0	0.9814021090562245	-0.8139591305365778	0.0	0.9351273181358031	-0.8146730640694974	0.0	0.9737404154230118	-0.4827206746394452	0.0	0.9942670700613486	-0.41623840730192874	0.0	1.0074487668972465	-0.44679793633739584	0.0	0.9690861535930099	-0.5045355345459714	0.0	0.947989850135767	-0.561553586934991	0.0	0.9383381629684024	-0.6108999324626508	0.0	0.961074965204858	-0.4933238457212653	0.0	0.9363408616768301	-0.517897576242512	0.0	0.9316645242740583	-0.5383709319026219	0.0
23	0.771488469601677	0.934916806368512	-0.6419352188505363	0.0	0.9349589543401172	-0.6425063289705969	0.0	0.9816214866541687	-0.7350365572352411	0.0	0.9502203551886361	-0.833300895186496	0.0	0.9894116641005739	-0.8424111088081687	0.0	0.9799454858338527	-0.8470295049478501	0.0	0.9401795114295347	-0.8426157842862632	0.0	0.9368889866594304	-0.6399916912860504	0.0	0.9780161454075714	-0.7315265792050981	0.0	0.9503346331010071	-0.8269049889572808	0.0	0.9861210290056032	-0.8363911786758843	0.0	0.9800232130381664	-0.8345968587120239	0.0	0.9342891043706673	-0.8361088693116813	0.0	0.9685461491431558	-0.5015880653652948	0.0	0.9843702119219747	-0.4343934301754609	0.0	1.0000782799864938	-0.46462358076256727	0.0	0.9663215964193347	-0.5242813013511737	0.0	0.9647426474629449	-0.5824219387022812	0.0	0.9761356597446174	-0.6287691876015403	0.0	0.9575458472845639	-0.5133914510273287	0.0	0.951590955788123	-0.5434096886354404	0.0	0.9628591294803258	-0.5594452755193943	0.0
24	0.8050314465408803	0.9365999321596477	-0.6551040373778999	0.0	0.9371720042598011	-0.6561185152050563	0.0	0.9734907327574095	-0.7537612145863709	0.0	0.9483273099789065	-0.8506354709494753	0.0	0.9891344346812015	-0.8589180438747924	0.0	0.9802183622599718	-0.8646098681333081	0.0	0.9388450990869213	-0.8599329165824482	0.0	0.9385196641821411	-0.6539092045659082	0.0	0.9712884505855228	-0.7505263175553302	0.0	0.9491377041605651	-0.8441330105679886	0.0	0.9854911433723683	-0.8525095419862718	0.0	0.9786810740387862	-0.8505952155724308	0.0	0.9336468557724581	-0.8530253833808045	0.0	0.9619951888531967	-0.5137647886667555	0.0	0.9718565851153472	-0.44608933330206924	0.0	0.9907351627961206	-0.4760414737147204	0.0	0.9623852991813567	-0.5364516839164603	0.0	0.9813709684700307	-0.5906917308116647	0.0	1.012235725034736	-0.6265822946216489	0.0	0.9530496376099582	-0.5266684881265628	0.0	0.969344115332212	-0.559575433955824	0.0	0.9956561600665821	-0.5695606098934132	0.0
25	0.8385744234800837	0.9395521897305611	-0.6593172616485805	0.0	0.9406052908819038	-0.6606981484646388	0.0	0.9667848609434124	-0.7638994099630775	0.0	0.9471695128130921	-0.8603991912560555	0.0	0.9890512647584423	-0.8688370189928232	0.0	0.9807294790463478	-0.8754394709469195	0.0	0.9381528855638519	-0.8704776027086891	0.0	0.9410636144922383	-0.6587418940757511	0.0	0.9654549603951221	-0.7607726968088735	0.0	0.948174769350947	-0.8535227299560072	0.0	0.9850264985074392	-0.8614468268533007	0.0	0.9775531321661434	-0.859360008272062	0.0	0.9332439112962894	-0.8627195390464689	0.0	0.9544830006365338	-0.5171399950523315	0.0	0.957018926077714	-0.4494996589437558	0.0	0.9796815254464439	-0.4789579387864284	0.0	0.9576521749004042	-0.5388645520814203	0.0	0.995301702717603	-0.584129434246251	0.0	1.0405949755396031	-0.603135104571744	0.0	0.9476513077718246	-0.5306837565457696	0.0	0.9853191078712283	-0.5612439481528159	0.0	1.0240010667980686	-0.5618126042499384	0.0
26	0.8721174004192871	0.9432781090808122	-0.6532218887473307	0.0	0.9447853406082753	-0.6548273408192652	0.0	0.963520912464133	-0.7629300942218828	0.0	0.9472567194755842	-0.8606177511738397	0.0	0.9885224786966402	-0.8704332537313791	0.0	0.9807567872252639	-0.8773945514719979	0.0	0.9385518529031076	-0.8719605319415599	0.0	0.9438944228947904	-0.6530851031315528	0.0	0.9622413079702081	-0.7597234343455436	0.0	0.947948664847982	-0.8530307763780104	0.0	0.984839492427485	-0.8614643606199528	0.0	0.9767773855499811	-0.859205546946834	0.0	0.9334667832431199	-0.8629615716314628	0.0	0.9462385999198186	-0.5106355830161363	0.0	0.9404308222079312	-0.4436462520033115	0.0	0.9672396752195076	-0.47219597848888634	0.0	0.9522882987404256	-0.5304857338983765	0.0	1.0044123247405896	-0.5631994914394	0.0	1.0571034047407908	-0.5619967199972467	0.0	0.9409718318230448	-0.5242348901427074	0.0	0.9954518913267488	-0.5471365481388956	0.0	1.041972942927009	-0.535266362693341	0.0
27	0.9056603773584905	0.9469400068812225	-0.6369438256287564	0.0	0.9489267491804071	-0.6385647295865384	0.0	0.9655474221517073	-0.7495098472496978	0.0	0.9493710733168736	-0.8500496258012854	0.0	0.9877310169300582	-0.8627128069083622	0.0	0.9804791294774384	-0.8693180514054462	0.0	0.9406350767764058	-0.8628031632128125	0.0	0.9461029283087434	-0.6370779525649196	0.0	0.9631958724892908	-0.746205892066905	0.0	0.9491291603499945	-0.8413092943582504	0.0	0.9852653424698612	-0.8515645190557907	0.0	0.9765285119244853	-0.8492226971370614	0.0	0.9350585364448264	-0.8521394518975568	0.0	0.9372833981384279	-0.494682185266518	0.0	0.9228785125902267	-0.42871622118804625	0.0	0.9538178416639361	-0.45588963174200253	0.0	0.94622862925012	-0.5118781098293429	0.0	1.0078119454830794	-0.5308492622538435	0.0	1.061335849275848	-0.5100428046950612	0.0	0.9323714790397041	-0.5078839912155653	0.0	0.9975157775291394	-0.5202893885231125	0.0	1.0468864494885197	-0.4958824155546846	0.0
28	0.9392033542976937	0.9495643345706605	-0.6122770142353604	0.0	0.9520766647398888	-0.6137015125365327	0.0	0.9740392984112489	-0.7233632484816028	0.0	0.9545716089531702	-0.8279333210825036	0.0	0.9879570441160481	-0.8450393623532934	0.0	0.9812185283480799	-0.850630983159601	0.0	0.9452782238160536	-0.8419649061256	0.0	0.9467953929776264	-0.6126211842293814	0.0	0.9693644196715724	-0.7201981731598599	0.0	0.9526883558494998	-0.8176170348502821	0.0	0.9870175550302012	-0.8312683928719612	0.0	0.9773557528716704	-0.8290131784531463	0.0	0.9390636054670828	-0.8292766967860477	0.0	0.9276119041498448	-0.47119822365978364	0.0	0.9052478481462761	-0.4061957069312296	0.0	0.9399874556344237	-0.4315954276814355	0.0	0.9394061357398388	-0.4852375746740881	0.0	1.0059986596164108	-0.491676457974727	0.0	1.0563456676011127	-0.45500408721084457	0.0	0.9216113427039417	-0.4839350553430629	0.0	0.991247211118118	-0.4864526848374154	0.0	1.0400090317229849	-0.45277515172821375	0.0
29	0.9727463312368971	0.9504853663580767	-0.5823496067718411	0.0	0.9535501006905808	-0.5834219712183848	0.0	0.9887194133127244	-0.6851517065293665	0.0	0.9638628347478373	-0.7940000086800963	0.0	0.9912436811787828	-0.8168346222603045	0.0	0.9851441844203283	-0.8209736916175432	0.0	0.9535022198512885	-0.8089608422334159	0.0	0.9455355402407651	-0.5829857153098622	0.0	0.9806464663895967	-0.6826251307944112	0.0	0.9596432661515543	-0.7820147544087105	0.0	0.9912166586535368	-0.800507732937602	0.0	0.9803095259210395	-0.7986014218920175	0.0	0.9464960106161585	-0.7942848873858512	0.0	0.917422183764712	-0.44310410779358594	0.0	0.8883948094295727	-0.3787705766890667	0.0	0.9264482070206441	-0.40210385872739546	0.0	0.9320186144239202	-0.45389115383639717	0.0	1.0005449901520276	-0.4507486254227915	0.0	1.0469958169586928	-0.40350843062140107	0.0	0.9092117331848631	-0.4558698350515062	0.0	0.9778809501592729	-0.45192837340002195	0.0	1.0251054153294348	-0.4142238476752234	0.0
30	1.0062893081761004	0.9498006929860194	-0.5508293051544104	0.0	0.9534326481440498	-0.5514902415079129	0.0	1.0072331962501448	-0.6364464484602771	0.0	0.977588735093048	-0.7487735251850348	0.0	0.9994463205582863	-0.7775688520607025	0.0	0.9942819142316953	-0.7801683828855484	0.0	0.9659437227434997	-0.7642190318804609	0.0	0.9427516770075015	-0.5519276548859868	0.0	0.9952325794698876	-0.6352739247143909	0.0	0.9705001927023709	-0.7357341993337336	0.0	0.9990951298982912	-0.7595446095543068	0.0	0.9867814339842537	-0.7583583119160713	0.0	0.9577886944686065	-0.7484076629809846	0.0	0.9071741781518311	-0.4137332570681035	0.0	0.8729444056731065	-0.349895885734063	0.0	0.9137671105562656	-0.3709590214629125	0.0	0.9246085268824303	-0.42142114081478643	0.0	0.9935087642205781	-0.4123053163135455	0.0	1.0379049277961263	-0.360022281537591	0.0	0.8962018090874795	-0.4274267553218313	0.0	0.9598355869883359	-0.42168691126499297	0.0	1.0066414651285187	-0.38534005149796624	0.0
31	1.039832285115304	0.9485271541459449	-0.5208801506457593	0.0	0.9527853113338072	-0.5212173294283269	0.0	1.0254547693974492	-0.5797218018454737	0.0	0.9949452622194294	-0.6938258729003738	0.0	1.0132983097184058	-0.7269293628878215	0.0	1.009400839817232	-0.7283203244984494	0.0	0.9822868888635796	-0.7093690561349246	0.0	0.9397877526090385	-0.5225899880691145	0.0	1.0097718829109095	-0.5806802871144834	0.0	0.9848709849577548	-0.6812012415999247	0.0	1.0114820778521239	-0.7088989170437778	0.0	0.9980759222716443	-0.7088062556151554	0.0	0.9725450737125522	-0.6942663545036468	0.0	0.897435451533705	-0.3862626919567915	0.0	0.8590841734330786	-0.3231368421282727	0.0	0.902122374624049	-0.34171336447531675	0.0	0.9178852740707197	-0.3909473055724307	0.0	0.9867733096494118	-0.3790301444079623	0.0	1.0318693332285669	-0.3265635550686788	0.0	0.883770714866718	-0.4017096927438725	0.0	0.9408315998030741	-0.39796633810822385	0.0	0.9890609661558963	-0.36664018378163593	0.0
